<mxfile host="Electron" modified="2024-02-28T06:30:36.025Z" agent="Mozilla/5.0 (X11; Linux x86_64) AppleWebKit/537.36 (KHTML, like Gecko) draw.io/23.1.5 Chrome/120.0.6099.109 Electron/28.1.0 Safari/537.36" etag="GgJ8vhb1aoqliF82koGf" version="23.1.5" type="device">
  <diagram name="Page-1" id="okQUsLcCIn6qNMJXYvbM">
    <mxGraphModel dx="4580" dy="1203" grid="1" gridSize="10" guides="1" tooltips="1" connect="1" arrows="1" fold="1" page="1" pageScale="1" pageWidth="850" pageHeight="1100" math="0" shadow="0">
      <root>
        <mxCell id="0" />
        <mxCell id="1" parent="0" />
        <mxCell id="1oog33LeQx-Wt4bM4erJ-16" value="&lt;font style=&quot;font-size: 48px;&quot;&gt;Controller Node&lt;/font&gt;" style="rounded=1;whiteSpace=wrap;html=1;verticalAlign=top;" parent="1" vertex="1">
          <mxGeometry x="-1270" y="390" width="420" height="180" as="geometry" />
        </mxCell>
        <mxCell id="1oog33LeQx-Wt4bM4erJ-14" value="&lt;font style=&quot;font-size: 24px;&quot;&gt;Active&lt;br&gt;Controller&lt;/font&gt;" style="rounded=1;whiteSpace=wrap;html=1;verticalAlign=middle;" parent="1" vertex="1">
          <mxGeometry x="-1120" y="450" width="120" height="60" as="geometry" />
        </mxCell>
        <mxCell id="0VppsKLyr3tMA3nW60oo-5" value="&lt;font style=&quot;font-size: 48px;&quot;&gt;Host&lt;/font&gt;" style="rounded=1;whiteSpace=wrap;html=1;verticalAlign=top;" parent="1" vertex="1">
          <mxGeometry x="-940" y="180" width="240" height="150" as="geometry" />
        </mxCell>
        <mxCell id="0VppsKLyr3tMA3nW60oo-6" value="&lt;font style=&quot;font-size: 24px;&quot;&gt;nvmeof&lt;br&gt;multipath&lt;br&gt;&lt;/font&gt;" style="rounded=0;whiteSpace=wrap;html=1;" parent="1" vertex="1">
          <mxGeometry x="-880" y="240" width="120" height="60" as="geometry" />
        </mxCell>
        <mxCell id="CMu3Gh7YvbsZgN_vGiJ3-20" value="&lt;font style=&quot;font-size: 48px;&quot;&gt;Disk Node&lt;/font&gt;" style="rounded=1;whiteSpace=wrap;html=1;verticalAlign=top;" parent="1" vertex="1">
          <mxGeometry x="-1495" y="630" width="420" height="210" as="geometry" />
        </mxCell>
        <mxCell id="CMu3Gh7YvbsZgN_vGiJ3-22" value="&lt;font style=&quot;font-size: 24px;&quot;&gt;Physical&lt;br&gt;Disk&lt;/font&gt;" style="shape=cylinder3;whiteSpace=wrap;html=1;boundedLbl=1;backgroundOutline=1;size=15;" parent="1" vertex="1">
          <mxGeometry x="-1345" y="870" width="120" height="80" as="geometry" />
        </mxCell>
        <mxCell id="CMu3Gh7YvbsZgN_vGiJ3-33" value="&lt;font style=&quot;font-size: 24px;&quot;&gt;/dev/nvme0n1&lt;/font&gt;" style="rounded=0;whiteSpace=wrap;html=1;" parent="1" vertex="1">
          <mxGeometry x="-1375" y="780" width="180" height="60" as="geometry" />
        </mxCell>
        <mxCell id="CMu3Gh7YvbsZgN_vGiJ3-34" value="" style="endArrow=classic;html=1;rounded=0;strokeWidth=5;strokeColor=#808080;exitX=0.5;exitY=0;exitDx=0;exitDy=0;entryX=0.5;entryY=1;entryDx=0;entryDy=0;" parent="1" source="CMu3Gh7YvbsZgN_vGiJ3-33" target="al-yUs3DC9owC33cyneI-1" edge="1">
          <mxGeometry width="50" height="50" relative="1" as="geometry">
            <mxPoint x="45" y="800" as="sourcePoint" />
            <mxPoint x="45" y="710" as="targetPoint" />
          </mxGeometry>
        </mxCell>
        <mxCell id="CMu3Gh7YvbsZgN_vGiJ3-21" value="" style="endArrow=classic;html=1;rounded=0;strokeWidth=5;strokeColor=#000000;exitX=0.5;exitY=0;exitDx=0;exitDy=0;exitPerimeter=0;entryX=0.5;entryY=1;entryDx=0;entryDy=0;" parent="1" source="CMu3Gh7YvbsZgN_vGiJ3-22" target="CMu3Gh7YvbsZgN_vGiJ3-33" edge="1">
          <mxGeometry width="50" height="50" relative="1" as="geometry">
            <mxPoint x="-965" y="1190" as="sourcePoint" />
            <mxPoint x="-915" y="1140" as="targetPoint" />
          </mxGeometry>
        </mxCell>
        <mxCell id="1oog33LeQx-Wt4bM4erJ-12" value="" style="endArrow=classic;html=1;rounded=0;strokeWidth=5;strokeColor=#808080;exitX=0.5;exitY=0;exitDx=0;exitDy=0;entryX=0.5;entryY=1;entryDx=0;entryDy=0;" parent="1" source="CMu3Gh7YvbsZgN_vGiJ3-33" target="CMu3Gh7YvbsZgN_vGiJ3-24" edge="1">
          <mxGeometry width="50" height="50" relative="1" as="geometry">
            <mxPoint x="-585" y="790" as="sourcePoint" />
            <mxPoint x="-585" y="700" as="targetPoint" />
          </mxGeometry>
        </mxCell>
        <mxCell id="CMu3Gh7YvbsZgN_vGiJ3-24" value="&lt;font style=&quot;font-size: 24px;&quot;&gt;Logical Disk&lt;/font&gt;" style="rounded=1;whiteSpace=wrap;html=1;verticalAlign=bottom;container=0;" parent="1" vertex="1">
          <mxGeometry x="-1435" y="690" width="120" height="60" as="geometry" />
        </mxCell>
        <mxCell id="al-yUs3DC9owC33cyneI-1" value="&lt;font style=&quot;font-size: 24px;&quot;&gt;Logical Disk&lt;/font&gt;" style="rounded=1;whiteSpace=wrap;html=1;verticalAlign=bottom;container=0;" parent="1" vertex="1">
          <mxGeometry x="-1255" y="690" width="120" height="60" as="geometry" />
        </mxCell>
        <mxCell id="al-yUs3DC9owC33cyneI-2" value="" style="endArrow=none;dashed=1;html=1;dashPattern=1 4;strokeWidth=5;rounded=0;exitX=1;exitY=0.5;exitDx=0;exitDy=0;entryX=1;entryY=0.5;entryDx=0;entryDy=0;" parent="1" edge="1">
          <mxGeometry width="50" height="50" relative="1" as="geometry">
            <mxPoint x="-1255" y="720" as="sourcePoint" />
            <mxPoint x="-1255" y="720" as="targetPoint" />
          </mxGeometry>
        </mxCell>
        <mxCell id="al-yUs3DC9owC33cyneI-5" value="" style="endArrow=none;dashed=1;html=1;dashPattern=1 4;strokeWidth=5;rounded=0;exitX=1;exitY=0.5;exitDx=0;exitDy=0;entryX=1;entryY=0.5;entryDx=0;entryDy=0;" parent="1" source="CMu3Gh7YvbsZgN_vGiJ3-24" edge="1">
          <mxGeometry width="50" height="50" relative="1" as="geometry">
            <mxPoint x="-1315" y="720" as="sourcePoint" />
            <mxPoint x="-1255" y="720" as="targetPoint" />
          </mxGeometry>
        </mxCell>
        <mxCell id="al-yUs3DC9owC33cyneI-8" value="&lt;font style=&quot;font-size: 48px;&quot;&gt;Disk Node&lt;/font&gt;" style="rounded=1;whiteSpace=wrap;html=1;verticalAlign=top;" parent="1" vertex="1">
          <mxGeometry x="-1045" y="630" width="420" height="210" as="geometry" />
        </mxCell>
        <mxCell id="al-yUs3DC9owC33cyneI-9" value="&lt;font style=&quot;font-size: 24px;&quot;&gt;Physical&lt;br&gt;Disk&lt;/font&gt;" style="shape=cylinder3;whiteSpace=wrap;html=1;boundedLbl=1;backgroundOutline=1;size=15;" parent="1" vertex="1">
          <mxGeometry x="-895" y="870" width="120" height="80" as="geometry" />
        </mxCell>
        <mxCell id="al-yUs3DC9owC33cyneI-10" value="&lt;font style=&quot;font-size: 24px;&quot;&gt;/dev/nvme0n1&lt;/font&gt;" style="rounded=0;whiteSpace=wrap;html=1;" parent="1" vertex="1">
          <mxGeometry x="-925" y="780" width="180" height="60" as="geometry" />
        </mxCell>
        <mxCell id="al-yUs3DC9owC33cyneI-11" value="" style="endArrow=classic;html=1;rounded=0;strokeWidth=5;strokeColor=#808080;exitX=0.5;exitY=0;exitDx=0;exitDy=0;entryX=0.5;entryY=1;entryDx=0;entryDy=0;" parent="1" source="al-yUs3DC9owC33cyneI-10" target="al-yUs3DC9owC33cyneI-15" edge="1">
          <mxGeometry width="50" height="50" relative="1" as="geometry">
            <mxPoint x="495" y="800" as="sourcePoint" />
            <mxPoint x="495" y="710" as="targetPoint" />
          </mxGeometry>
        </mxCell>
        <mxCell id="al-yUs3DC9owC33cyneI-12" value="" style="endArrow=classic;html=1;rounded=0;strokeWidth=5;strokeColor=#000000;exitX=0.5;exitY=0;exitDx=0;exitDy=0;exitPerimeter=0;entryX=0.5;entryY=1;entryDx=0;entryDy=0;" parent="1" source="al-yUs3DC9owC33cyneI-9" target="al-yUs3DC9owC33cyneI-10" edge="1">
          <mxGeometry width="50" height="50" relative="1" as="geometry">
            <mxPoint x="-515" y="1190" as="sourcePoint" />
            <mxPoint x="-465" y="1140" as="targetPoint" />
          </mxGeometry>
        </mxCell>
        <mxCell id="al-yUs3DC9owC33cyneI-13" value="" style="endArrow=classic;html=1;rounded=0;strokeWidth=5;strokeColor=#808080;exitX=0.5;exitY=0;exitDx=0;exitDy=0;entryX=0.5;entryY=1;entryDx=0;entryDy=0;" parent="1" source="al-yUs3DC9owC33cyneI-10" target="al-yUs3DC9owC33cyneI-14" edge="1">
          <mxGeometry width="50" height="50" relative="1" as="geometry">
            <mxPoint x="-135" y="790" as="sourcePoint" />
            <mxPoint x="-135" y="700" as="targetPoint" />
          </mxGeometry>
        </mxCell>
        <mxCell id="al-yUs3DC9owC33cyneI-14" value="&lt;font style=&quot;font-size: 24px;&quot;&gt;Logical Disk&lt;/font&gt;" style="rounded=1;whiteSpace=wrap;html=1;verticalAlign=bottom;container=0;" parent="1" vertex="1">
          <mxGeometry x="-985" y="690" width="120" height="60" as="geometry" />
        </mxCell>
        <mxCell id="al-yUs3DC9owC33cyneI-15" value="&lt;font style=&quot;font-size: 24px;&quot;&gt;Logical Disk&lt;/font&gt;" style="rounded=1;whiteSpace=wrap;html=1;verticalAlign=bottom;container=0;" parent="1" vertex="1">
          <mxGeometry x="-805" y="690" width="120" height="60" as="geometry" />
        </mxCell>
        <mxCell id="al-yUs3DC9owC33cyneI-16" value="" style="endArrow=none;dashed=1;html=1;dashPattern=1 4;strokeWidth=5;rounded=0;exitX=1;exitY=0.5;exitDx=0;exitDy=0;entryX=1;entryY=0.5;entryDx=0;entryDy=0;" parent="1" edge="1">
          <mxGeometry width="50" height="50" relative="1" as="geometry">
            <mxPoint x="-805" y="720" as="sourcePoint" />
            <mxPoint x="-805" y="720" as="targetPoint" />
          </mxGeometry>
        </mxCell>
        <mxCell id="al-yUs3DC9owC33cyneI-17" value="" style="endArrow=none;dashed=1;html=1;dashPattern=1 4;strokeWidth=5;rounded=0;exitX=1;exitY=0.5;exitDx=0;exitDy=0;entryX=1;entryY=0.5;entryDx=0;entryDy=0;" parent="1" source="al-yUs3DC9owC33cyneI-14" edge="1">
          <mxGeometry width="50" height="50" relative="1" as="geometry">
            <mxPoint x="-865" y="720" as="sourcePoint" />
            <mxPoint x="-805" y="720" as="targetPoint" />
          </mxGeometry>
        </mxCell>
        <mxCell id="1oog33LeQx-Wt4bM4erJ-20" value="" style="endArrow=classic;html=1;rounded=0;strokeWidth=5;strokeColor=#0000f0;exitX=0.5;exitY=0;exitDx=0;exitDy=0;entryX=0.5;entryY=1;entryDx=0;entryDy=0;" parent="1" source="CMu3Gh7YvbsZgN_vGiJ3-24" target="1oog33LeQx-Wt4bM4erJ-14" edge="1">
          <mxGeometry width="50" height="50" relative="1" as="geometry">
            <mxPoint x="150" y="560" as="sourcePoint" />
            <mxPoint x="30" y="300" as="targetPoint" />
          </mxGeometry>
        </mxCell>
        <mxCell id="al-yUs3DC9owC33cyneI-43" value="" style="endArrow=classic;html=1;rounded=0;strokeWidth=5;strokeColor=#0000f0;exitX=0.5;exitY=0;exitDx=0;exitDy=0;entryX=0.5;entryY=1;entryDx=0;entryDy=0;" parent="1" source="al-yUs3DC9owC33cyneI-14" target="1oog33LeQx-Wt4bM4erJ-14" edge="1">
          <mxGeometry width="50" height="50" relative="1" as="geometry">
            <mxPoint x="-40" y="800" as="sourcePoint" />
            <mxPoint x="80" y="540" as="targetPoint" />
          </mxGeometry>
        </mxCell>
        <mxCell id="al-yUs3DC9owC33cyneI-70" value="" style="endArrow=classic;html=1;rounded=0;strokeWidth=5;strokeColor=#00c800;exitX=0.5;exitY=0;exitDx=0;exitDy=0;entryX=0.5;entryY=1;entryDx=0;entryDy=0;" parent="1" source="1oog33LeQx-Wt4bM4erJ-14" target="0VppsKLyr3tMA3nW60oo-6" edge="1">
          <mxGeometry width="50" height="50" relative="1" as="geometry">
            <mxPoint x="-180" y="110" as="sourcePoint" />
            <mxPoint x="-180" y="-10" as="targetPoint" />
          </mxGeometry>
        </mxCell>
        <mxCell id="5dKm01SyyKgGF0xV659t-1" value="&lt;font style=&quot;font-size: 48px;&quot;&gt;Controller Node&lt;/font&gt;" style="rounded=1;whiteSpace=wrap;html=1;verticalAlign=top;" parent="1" vertex="1">
          <mxGeometry x="-790" y="390" width="420" height="180" as="geometry" />
        </mxCell>
        <mxCell id="5dKm01SyyKgGF0xV659t-2" value="&lt;font style=&quot;font-size: 24px;&quot;&gt;Standby&lt;br&gt;Controller&lt;br&gt;&lt;/font&gt;" style="rounded=1;whiteSpace=wrap;html=1;verticalAlign=middle;" parent="1" vertex="1">
          <mxGeometry x="-640" y="450" width="120" height="60" as="geometry" />
        </mxCell>
        <mxCell id="5dKm01SyyKgGF0xV659t-4" value="" style="endArrow=classic;html=1;rounded=0;strokeWidth=5;strokeColor=#f00000;exitX=0.5;exitY=0;exitDx=0;exitDy=0;entryX=0.5;entryY=1;entryDx=0;entryDy=0;" parent="1" source="5dKm01SyyKgGF0xV659t-2" target="0VppsKLyr3tMA3nW60oo-6" edge="1">
          <mxGeometry width="50" height="50" relative="1" as="geometry">
            <mxPoint x="-840" y="340" as="sourcePoint" />
            <mxPoint x="-790" y="290" as="targetPoint" />
          </mxGeometry>
        </mxCell>
      </root>
    </mxGraphModel>
  </diagram>
</mxfile>
